# xmcd
#
# Track frame offsets:
#	150
#	19722
#	31052
#	47577
#	63475
#	80435
#	95887
#	108690
#	129100
#	147362
#	161572
#	178795
#
# Disc length: 2608 seconds
# Revision: 5
# Processed by: cddbd v1.5.2PL0 Copyright (c) Steve Scherf et al.
# Submitted via: dBpowerAMP V12.0
#
DISCID=9d0a2e0c
DTITLE=Etta James - Come a Little Closer
DYEAR=1974
DGENRE=Soul
TTITLE0=Out on The Street Again
TTITLE1=Mama Told me
TTITLE2=You Give me What I Want
TTITLE3=Come a Little Closer
TTITLE4=Let's Burn Down The Cornfield
TTITLE5=Power Play
TTITLE6=Feeling Uneasy
TTITLE7=St. Louis Blues
TTITLE8=Gonna Have Some Fun Tonight
TTITLE9=Sookie Sookie
TTITLE10=Lovin' Arms
TTITLE11=Out on The Street Again (Single Edit)
EXTD=
EXTT0=
EXTT1=
EXTT2=
EXTT3=
EXTT4=
EXTT5=
EXTT6=
EXTT7=
EXTT8=
EXTT9=
EXTT10=
EXTT11=
PLAYORDER=
